<?xml version="1.0" encoding="UTF-8" standalone="no"?>
<svg
   xmlns="http://www.w3.org/2000/svg"
   version="1.1"
   width="645.16785"
   height="214.01123"
   >
  <path
     style="fill:#1c9954;fill-opacity:1;stroke:none"
     d="m 118.077,94.831749 -8.0613,0 -11.78091,-9.69222 c 0.30118,-0.27291 0.4721,-0.60202 0.48317,-0.95113 0.0141,-0.43884 -0.22186,-0.8549 -0.66415,-1.17186 -0.45641,-0.32702 -1.07103,-0.50717 -1.73137,-0.50717 -0.61966,0 -1.20772,0.16193 -1.65607,0.45568 -0.58785,0.38584 -1.35992,0.59815 -2.17426,0.59815 -1.73478,0 -3.14624,-0.96783 -3.14624,-2.15749 0,-1.18953 1.41146,-2.15736 3.14624,-2.15736 1.32108,0 2.39572,-0.73688 2.39572,-1.64272 l 0,-4.022067 -4.79205,1.34e-4 0,2.632641 c -3.27468,0.712173 -5.54195,2.823702 -5.54195,5.189502 0,1.44878 0.83145,2.76627 2.18252,3.74266 l -11.77064,9.68325 -8.06131,0 c -4.34812,0 -7.87245,2.41689 -7.87245,5.398231 l 0,17.89371 c 0,2.98121 3.52433,5.39822 7.87245,5.39822 l 51.17179,0 c 4.34773,0 7.87225,-2.41714 7.87225,-5.39822 l 0,-17.89371 c 9.1e-4,-2.981341 -3.52372,-5.398231 -7.87144,-5.398231 z M 73.06825,116.46606 c 0,1.03505 -1.22383,1.87437 -2.73353,1.87437 -1.50971,0 -2.73334,-0.83932 -2.73334,-1.87437 l 0,-14.57845 c 0,-1.03506 1.22363,-1.87436 2.73334,-1.87436 1.5097,0 2.73353,0.8393 2.73353,1.87436 z m 14.77093,0 c 0,1.03505 -1.22363,1.87437 -2.73354,1.87437 -1.50991,0 -2.73354,-0.83932 -2.73354,-1.87437 l 0,-14.57845 c 0,-1.03506 1.22363,-1.87436 2.73354,-1.87436 1.50991,0 2.73354,0.8393 2.73354,1.87436 z m 14.77112,0 c 0,1.03505 -1.22403,1.87437 -2.73354,1.87437 -1.5099,0 -2.73354,-0.83932 -2.73354,-1.87437 l 0,-14.57845 c 0,-1.03506 1.22364,-1.87436 2.73354,-1.87436 1.50951,0 2.73354,0.8393 2.73354,1.87436 z m -21.61583,-21.634311 9.84842,-8.10195 c 0.53249,0.0774 1.08391,0.11885 1.64943,0.11885 0.55946,0 1.11088,-0.0413 1.6476,-0.11858 l 9.84802,8.10168 z m 36.38655,21.634311 c 0,1.03505 -1.22363,1.87437 -2.73353,1.87437 -1.5095,0 -2.73354,-0.83932 -2.73354,-1.87437 l 0,-14.57845 c 0,-1.03506 1.22404,-1.87436 2.73354,-1.87436 1.5099,0 2.73353,0.8393 2.73353,1.87436 z"
     id="path3589" />
  <path
     id="path142-0"
     style="fill:#000000;fill-opacity:1;stroke:none"
     d="M 114.25444,163.52777 H 71.08502 c -2.55565,0 -4.64662,-2.4743 -4.64662,-5.49816 0,-3.02387 2.09098,-5.49791 4.64662,-5.49791 h 43.16942 c 2.55588,0 4.64684,2.47417 4.64684,5.49791 0,3.02386 -2.09118,5.49816 -4.64684,5.49816 m 25.041,-101.044311 h -93.2512 c -3.99647,0 -6.6608,2.66432 -6.6608,6.6608 v 66.608001 c 0,3.99648 2.66433,6.6608 6.6608,6.6608 h 93.2512 c 3.99648,0 6.6608,-2.66432 6.6608,-6.6608 V 69.144259 c 0,-3.99648 -2.66432,-6.6608 -6.6608,-6.6608 z m -6.6608,66.608001 H 52.70504 V 75.805059 h 79.9296 v 53.286401 z"
     />
  <path
     id="path116"
     style="fill:#1c9954;fill-opacity:1;stroke:none"
     d="m 170.73265,152.07593 -78.06323,45.06924 -78.0628,-45.06924 0,-90.13977 78.06323,-45.0701 78.0628,45.0701 0,90.13977 m 14.60704,8.43217 0,-107.004972 L 92.66985,0 0,53.502699 0,160.5081 l 92.66985,53.50313 92.66984,-53.50313 0,0 z" />
  <path
     id="path194-2"
     d="m 268.84826,149.88395 q -18.28736,0 -28.3597,-9.71516 -10.07233,-9.71516 -10.07233,-27.43104 l 0,0 q 0,-12.00108 4.71471,-21.216191 4.71471,-9.21512 13.28691,-14.287 8.5722,-5.07189 19.85893,-5.07189 l 0,0 q 5.28619,0 11.07242,1.214395 5.78624,1.214395 8.92938,2.785965 l 0,0 -3.85749,17.00153 q -3.28601,-1.57157 -7.21494,-2.50022 -3.92892,-0.92866 -7.3578,-0.92866 l 0,0 q -8.85794,0 -14.21557,6.00054 -5.35762,6.000541 -5.35762,15.858571 l 0,0 q 0,10.0009 5.50049,15.42996 5.5005,5.42906 15.64427,5.42906 l 0,0 q 6.71489,0 14.42987,-2.57166 l 0,0 3.00027,16.28718 q -9.28655,3.71462 -20.0018,3.71462 l 0,0 z m 67.57751,0 q -11.14386,0 -19.64463,-4.85758 -8.50076,-4.85758 -13.21547,-13.64408 -4.71471,-8.78651 -4.71471,-20.35898 l 0,0 q 0,-11.572471 4.64327,-20.358971 4.64328,-8.78651 13.14404,-13.64409 8.50077,-4.85758 19.64463,-4.85758 l 0,0 q 11.14386,0 19.64463,4.78615 8.50076,4.78614 13.14404,13.50121 4.64327,8.71507 4.64327,20.144671 l 0,0 q 0,11.57247 -4.64327,20.50185 -4.64328,8.92937 -13.14404,13.85839 -8.50077,4.92901 -19.50176,4.92901 l 0,0 z m -0.14287,-17.43014 q 7.71498,0 12.35826,-5.9291 4.64327,-5.92911 4.64327,-15.64427 l 0,0 q 0,-9.71516 -4.64327,-15.501391 -4.64328,-5.78624 -12.35826,-5.78624 l 0,0 q -7.71498,0 -12.35826,5.78624 -4.64327,5.786231 -4.64327,15.501391 l 0,0 q 0,9.71516 4.64327,15.64427 4.64328,5.9291 12.35826,5.9291 l 0,0 z m 52.43329,15.28709 0,-73.578051 19.71606,0 0,12.71543 q 4.57184,-7.57211 10.57238,-11.14386 6.00054,-3.57175 14.00126,-3.57175 l 0,0 q 11.85821,0 18.5731,7.07207 6.71489,7.07206 6.71489,19.64462 l 0,0 0,48.861541 -20.14467,0 0,-45.7184 q 0,-5.714801 -2.8574,-8.929371 -2.8574,-3.21458 -7.71498,-3.21458 l 0,0 q -5.7148,0 -10.85812,4.2861 -5.14332,4.2861 -7.85785,10.858121 l 0,0 0,42.71813 -20.14467,0 z m 122.43959,2.14305 q -18.28736,0 -28.35969,-9.71516 -10.07234,-9.71516 -10.07234,-27.43104 l 0,0 q 0,-12.00108 4.71471,-21.216191 4.71471,-9.21512 13.28691,-14.287 8.5722,-5.07189 19.85893,-5.07189 l 0,0 q 5.28619,0 11.07242,1.214395 5.78624,1.214395 8.92938,2.785965 l 0,0 -3.85749,17.00153 q -3.28601,-1.57157 -7.21493,-2.50022 -3.92893,-0.92866 -7.35781,-0.92866 l 0,0 q -8.85794,0 -14.21556,6.00054 -5.35763,6.000541 -5.35763,15.858571 l 0,0 q 0,10.0009 5.5005,15.42996 5.50049,5.42906 15.64426,5.42906 l 0,0 q 6.71489,0 14.42987,-2.57166 l 0,0 3.00027,16.28718 q -9.28655,3.71462 -20.0018,3.71462 l 0,0 z m 42.861,-87.865051 0,-18.573097 23.00207,0 0,18.573097 -23.00207,0 z m -11.14386,85.722001 0,-17.28727 13.71552,0 0,-39.003511 -13.71552,0 0,-17.28727 33.86019,0 0,56.290781 12.28682,0 0,17.28727 -46.14701,0 z m 56.14791,0 0,-17.28727 13.00117,0 0,-69.863431 -12.28682,0 0,-17.144397 32.43149,0 0,87.007828 13.00117,0 0,17.28727 -46.14701,0 z"
     style="fill:#000000;fill-opacity:1;stroke:none"
     />
</svg>
